<?xml version="1.0" standalone="no"?>
<!DOCTYPE svg PUBLIC "-//W3C//DTD SVG 20010904//EN"
 "http://www.w3.org/TR/2001/REC-SVG-20010904/DTD/svg10.dtd">
<svg version="1.0" xmlns="http://www.w3.org/2000/svg"
 width="700.000000pt" height="700.000000pt" viewBox="0 0 700.000000 700.000000"
 preserveAspectRatio="xMidYMid meet">
<metadata>
Created by potrace 1.14, written by Peter Selinger 2001-2017
</metadata>
<g transform="translate(0.000000,700.000000) scale(0.100000,-0.100000)"
fill="#000000" stroke="none">
<path d="M3405 6920 c-310 -146 -490 -242 -499 -266 -8 -21 79 -68 580 -314
834 -411 1726 -860 1818 -916 9 -6 21 -28 26 -50 17 -78 27 -372 35 -989 10
-865 18 -1318 30 -1535 1 -30 3 -72 4 -92 1 -31 5 -38 22 -38 54 0 511 213
582 271 38 31 51 63 62 154 4 28 9 622 12 1322 l5 1271 -84 52 c-46 28 -373
197 -728 374 -355 178 -705 355 -779 394 -245 131 -855 428 -894 437 -14 3
-83 -24 -192 -75z"/>
<path d="M2545 6484 c-100 -42 -394 -174 -495 -222 -52 -24 -133 -62 -180 -84
-47 -22 -121 -57 -165 -78 -416 -195 -1289 -625 -1520 -748 -125 -67 -146 -90
-164 -183 -20 -97 -16 -400 5 -503 5 -25 9 -27 37 -22 17 3 87 31 156 60 117
51 216 97 651 308 284 138 686 330 890 425 41 19 125 59 185 88 61 29 139 66
175 83 36 16 110 51 165 77 195 92 276 125 305 125 80 0 232 -71 1375 -642
928 -463 1045 -520 1122 -544 46 -14 49 -11 59 54 8 52 14 587 6 597 -9 13 2
7 -957 489 -1145 575 -1508 747 -1573 746 -9 -1 -44 -12 -77 -26z"/>
<path d="M2590 5587 c-14 -6 -67 -31 -118 -54 -51 -24 -95 -43 -97 -43 -2 0
-65 -29 -140 -65 -76 -36 -138 -65 -140 -65 -2 0 -153 -71 -400 -190 -60 -29
-155 -74 -210 -100 -55 -26 -176 -85 -270 -130 -93 -45 -219 -106 -280 -135
-298 -143 -676 -328 -810 -399 -16 -8 -42 -26 -57 -39 -27 -23 -28 -29 -43
-157 -27 -243 -27 -2007 0 -2310 9 -97 14 -130 20 -140 16 -26 371 -218 526
-284 97 -41 125 -26 135 72 3 26 8 592 11 1257 3 795 9 1214 15 1223 6 6 14
12 18 12 4 0 117 53 251 119 134 65 287 139 339 164 52 25 180 86 283 136 104
50 190 91 192 91 1 0 85 40 186 89 101 48 216 103 254 121 39 18 228 110 420
205 365 181 550 278 561 297 8 12 -39 56 -84 79 -15 7 -44 24 -66 37 -56 35
-270 143 -353 180 -87 38 -110 43 -143 29z"/>
<path d="M6329 5581 c-27 -22 -27 -13 -34 -796 -15 -1780 -17 -1858 -36 -1881
-5 -7 -27 -21 -47 -32 -20 -10 -89 -47 -152 -81 -63 -35 -317 -163 -565 -286
-438 -216 -542 -267 -750 -365 -55 -26 -138 -66 -185 -88 -47 -22 -128 -60
-180 -85 -242 -114 -280 -133 -350 -173 -41 -24 -85 -53 -98 -65 -32 -29 -37
-25 173 -148 116 -67 353 -190 406 -210 29 -10 93 13 289 106 58 28 179 85
270 128 91 43 206 97 255 120 50 23 162 76 250 118 88 41 201 94 250 117 50
23 117 55 150 70 33 15 107 50 165 77 58 28 137 65 175 83 161 74 572 283 602
306 23 17 33 35 38 66 4 24 9 51 11 61 16 88 23 443 28 1527 4 926 1 1077 -24
1131 -18 39 -259 177 -480 273 -102 45 -133 50 -161 27z"/>
<path d="M3328 4504 c-337 -56 -578 -219 -730 -494 -72 -131 -108 -282 -113
-475 -7 -266 42 -453 168 -640 40 -59 146 -170 201 -210 126 -92 304 -164 471
-189 119 -18 403 -14 508 8 155 31 340 111 405 174 8 7 29 24 48 39 48 36 126
136 163 209 28 56 71 173 71 195 0 5 -99 9 -219 9 l-219 0 -30 -64 c-83 -177
-246 -261 -507 -260 -214 1 -343 50 -470 178 -130 131 -185 300 -180 547 7
333 178 574 450 638 86 20 97 21 195 22 183 2 326 -47 423 -145 50 -51 107
-147 107 -180 0 -14 28 -16 225 -16 l225 0 -7 33 c-11 59 -63 184 -102 243
-119 184 -313 309 -565 366 -114 26 -399 32 -518 12z"/>
<path d="M1510 4173 c-84 -30 -198 -80 -367 -160 l-203 -96 -1 -46 c0 -25 -2
-66 -4 -91 -4 -61 -17 -310 -20 -390 -23 -534 -23 -1552 0 -1845 2 -27 7 -95
10 -150 4 -55 9 -103 11 -107 3 -4 145 -77 317 -162 172 -85 632 -313 1022
-508 638 -317 805 -399 1150 -564 120 -58 148 -59 260 -14 77 31 254 111 285
130 8 4 46 25 85 45 71 38 114 66 149 98 24 21 31 14 -84 81 -142 84 -308 168
-1030 527 -399 198 -903 449 -1120 557 l-395 197 -2 885 c-1 795 -8 1424 -17
1520 -2 19 -4 50 -5 68 -1 31 -9 36 -41 25z"/>
<path d="M1865 2390 c-13 -60 -14 -86 -15 -305 0 -243 3 -285 26 -320 9 -14
82 -56 187 -108 95 -47 334 -165 532 -262 198 -97 712 -352 1143 -566 430
-214 785 -389 787 -389 3 0 75 34 161 75 86 41 157 75 159 75 1 0 79 36 171
81 93 44 201 96 239 114 39 18 120 56 180 85 61 29 146 69 190 90 44 21 145
69 225 108 80 38 208 100 285 137 324 156 745 370 831 422 17 11 19 24 19 150
0 232 -34 463 -69 463 -7 0 -30 -8 -52 -19 -21 -10 -61 -29 -89 -41 -27 -12
-84 -38 -125 -57 -41 -19 -104 -48 -139 -64 -70 -33 -173 -81 -296 -139 -156
-74 -261 -123 -355 -166 -52 -25 -102 -48 -111 -53 -14 -8 -134 -65 -444 -211
-44 -21 -138 -66 -210 -100 -130 -62 -202 -96 -390 -185 -55 -25 -114 -53
-131 -61 -30 -14 -35 -12 -590 262 -527 261 -688 340 -1234 606 -501 245 -816
394 -853 403 -22 6 -26 3 -32 -25z"/>
</g>
</svg>
