<svg width="30" height="30" viewBox="0 0 30 30" fill="none" xmlns="http://www.w3.org/2000/svg">
<path d="M14.6785 19C13.914 19 13.2576 18.855 12.7094 18.5649C12.1613 18.2684 11.7393 17.8591 11.4436 17.337C11.1479 16.8085 11 16.1994 11 15.5097C11 14.82 11.1479 14.2109 11.4436 13.6823C11.7393 13.1538 12.1613 12.7413 12.7094 12.4448C13.2576 12.1483 13.914 12 14.6785 12C15.5873 12 16.3302 12.203 16.9073 12.6091C17.4915 13.0087 17.8557 13.5727 18 14.3011H16.4745C16.3807 13.9337 16.1788 13.6469 15.8686 13.4406C15.5657 13.2279 15.1618 13.1215 14.6569 13.1215C13.9572 13.1215 13.4091 13.3343 13.0124 13.7597C12.6157 14.1851 12.4173 14.7684 12.4173 15.5097C12.4173 16.2509 12.6157 16.8343 13.0124 17.2597C13.4091 17.6786 13.9572 17.8881 14.6569 17.8881C15.1618 17.8881 15.5657 17.7914 15.8686 17.5981C16.1788 17.3983 16.3807 17.1243 16.4745 16.7762H18C17.8557 17.4724 17.4915 18.017 16.9073 18.4102C16.3302 18.8034 15.5873 19 14.6785 19Z" fill="white"/>
<path fill-rule="evenodd" clip-rule="evenodd" d="M13.8763 0.682341C13.0919 1.05699 12.45 1.41386 12.45 1.47542C12.45 1.60811 12.4067 1.58506 15.6683 3.1912C19.826 5.23847 22.6048 6.64276 22.7901 6.79004C22.9177 6.89134 22.9758 8.43298 23.0096 12.6113C23.0349 15.7372 23.1057 18.3208 23.1667 18.3524C23.3068 18.425 25.4228 17.452 25.7847 17.1486C26.0391 16.9354 26.0545 16.5963 26.0545 11.168V5.41347L25.6522 5.14993C25.431 5.00497 24.0853 4.31711 22.6621 3.62128C21.2388 2.92533 19.8893 2.24581 19.6633 2.11104C19.1475 1.80347 15.4851 -0.00147072 15.3801 8.99379e-07C15.3375 0.000736708 14.6607 0.307692 13.8763 0.682341ZM5.72093 4.61021C2.86473 5.98801 0.418118 7.22528 0.283975 7.35981C0.0942438 7.55001 0.0373391 7.87548 0.0282695 8.82259C0.021833 9.49267 0.0806393 10.0741 0.158902 10.1147C0.23731 10.1553 1.0764 9.80784 2.02374 9.34257C4.46084 8.14577 10.4537 5.3031 10.8953 5.13435C11.2357 5.00436 11.5684 5.14367 15.0394 6.87025C17.1152 7.90283 19.4982 9.09497 20.335 9.51965C21.1719 9.94421 21.9126 10.2627 21.9808 10.2274C22.0489 10.1921 22.1048 9.53682 22.1048 8.77121V7.37943L20.6054 6.61725C14.5872 3.55837 11.5397 2.08516 11.2495 2.09448C11.065 2.10037 8.57714 3.23253 5.72093 4.61021ZM6.89121 8.01958C0.596878 11.043 0.395444 11.1438 0.198691 11.3665C-0.0662303 11.6662 -0.0662303 22.1843 0.198691 22.4662C0.403782 22.6846 2.55051 23.79 2.76935 23.79C2.84688 23.79 2.95016 23.7027 2.99902 23.596C3.04787 23.4893 3.08781 21.0078 3.08781 18.0815V12.7609L4.44094 12.1C5.18524 11.7365 7.62073 10.5703 9.85347 9.50849C12.0862 8.4466 13.9129 7.50746 13.9129 7.42149C13.9129 7.25753 11.5293 6.00481 11.2321 6.01242C11.1376 6.01487 9.18422 6.91808 6.89121 8.01958ZM27.0397 6.1613C27.0012 6.24567 26.9647 8.78691 26.9585 11.8085C26.9524 14.8302 26.9116 17.3971 26.8677 17.5127C26.8008 17.6895 22.6826 19.7415 17.9534 21.9546C17.3001 22.2604 16.7654 22.5875 16.7654 22.6814C16.7654 22.823 19.2123 24.158 19.4715 24.158C19.5157 24.158 20.3732 23.7666 21.377 23.2882C22.3807 22.81 24.6172 21.7586 26.3471 20.9519C28.0769 20.1453 29.5918 19.3878 29.7134 19.2687C29.9026 19.0834 29.9413 18.2107 29.9805 13.232C30.0241 7.72121 30.0122 7.40175 29.7593 7.22147C29.2738 6.87528 27.5283 6.008 27.3171 6.008C27.2031 6.008 27.0783 6.07705 27.0397 6.1613ZM5.27184 12.6205L4.03866 13.2111L3.94679 14.9135C3.81967 17.2697 3.80168 21.8935 3.91417 23.3173L4.00765 24.5001L5.19343 25.0848C5.84557 25.4064 8.30695 26.632 10.663 27.8083C13.0192 28.9845 15.0599 29.9697 15.1978 29.9976C15.5201 30.0625 18.082 28.8043 18.082 28.5811C18.082 28.4884 15.7089 27.2482 12.8086 25.8253C9.90818 24.4024 7.35742 23.1403 7.14004 23.0208L6.74492 22.8033V17.4788C6.74492 14.5503 6.69095 12.1263 6.62497 12.092C6.559 12.0578 5.95001 12.2956 5.27184 12.6205ZM7.9152 21.0279C7.9152 22.3555 7.93392 22.4451 8.24434 22.6054C8.42529 22.699 9.95587 23.4538 11.6455 24.2829C13.335 25.1119 15.7664 26.3155 17.0486 26.9573L19.38 28.1245L19.9012 27.8789C26.2571 24.8848 29.8495 23.1267 29.9183 22.9766C30.0698 22.6454 29.8296 20.3419 29.6475 20.3815C29.5565 20.4014 27.2306 21.4848 24.4789 22.7891L19.4758 25.1605L13.8599 22.3905C10.7713 20.8669 8.17003 19.6205 8.07963 19.6205C7.96742 19.6205 7.9152 20.0678 7.9152 21.0279Z" fill="#F5CD76"/>
</svg>
